<?xml version="1.0" encoding="UTF-8" standalone="no"?>
<svg width="162px" height="290px" viewBox="0 0 162 290" version="1.1" xmlns="http://www.w3.org/2000/svg" xmlns:xlink="http://www.w3.org/1999/xlink">
    <!-- Generator: Sketch 47.1 (45422) - http://www.bohemiancoding.com/sketch -->
    <title>CSS Sprite_hardware</title>
    <desc>Created with Sketch.</desc>
    <defs></defs>
    <g id="Page-1" stroke="none" stroke-width="1" fill="none" fill-rule="evenodd">
        <g id="CSS-Sprite_hardware">
            <g id="icns_home" transform="translate(134.000000, 2.000000)">
                <g id="home_icn_me" stroke="#FFFFFF" stroke-width="2">
                    <circle id="Oval-3" cx="13" cy="9" r="5"></circle>
                    <path d="M5,22 C5,17.581722 8.581722,14 13,14 C17.418278,14 21,17.581722 21,22 L5,22 Z" id="Combined-Shape" stroke-linecap="round" stroke-linejoin="round"></path>
                </g>
                <g id="home_icn_bluetooth" transform="translate(0.000000, 28.000000)" stroke-linecap="round" stroke-width="2" stroke="#FFFFFF" stroke-linejoin="round">
                    <polygon id="Rectangle-3" points="13 3 19 7.77277708 13 12.5455542"></polygon>
                    <polygon id="Rectangle-3-Copy" points="13 13 19 17.7727771 13 22.5455542"></polygon>
                    <polyline id="Rectangle-3-Copy-2" points="7 8 13 12.7727771 7 17.5455542"></polyline>
                </g>
                <g id="home_icn_help" transform="translate(0.000000, 56.000000)" fill="#FFFFFF">
                    <rect id="Rectangle-2" x="11" y="10" width="5" height="13" rx="2.5"></rect>
                    <rect id="Rectangle-2-Copy" x="11" y="4" width="5" height="5" rx="2.5"></rect>
                </g>
            </g>
            <g id="icns_other" transform="translate(94.000000, 2.000000)">
                <g id="icn_toast_wrong" transform="translate(0.000000, 176.000000)">
                    <circle id="Combined-Shape" fill="#FFFFFF" cx="18" cy="18" r="18"></circle>
                    <path d="M18,16.5857864 L10.9289322,9.51471863 C10.5384079,9.12419433 9.90524292,9.12419433 9.51471863,9.51471863 C9.12419433,9.90524292 9.12419433,10.5384079 9.51471863,10.9289322 L16.5857864,18 L9.51471863,25.0710678 C9.12419433,25.4615921 9.12419433,26.0947571 9.51471863,26.4852814 C9.90524292,26.8758057 10.5384079,26.8758057 10.9289322,26.4852814 L18,19.4142136 L25.0710678,26.4852814 C25.4615921,26.8758057 26.0947571,26.8758057 26.4852814,26.4852814 C26.8758057,26.0947571 26.8758057,25.4615921 26.4852814,25.0710678 L19.4142136,18 L26.4852814,10.9289322 C26.8758057,10.5384079 26.8758057,9.90524292 26.4852814,9.51471863 C26.0947571,9.12419433 25.4615921,9.12419433 25.0710678,9.51471863 L18,16.5857864 Z M18,36 C8.0588745,36 0,27.9411255 0,18 C0,8.0588745 8.0588745,0 18,0 C27.9411255,0 36,8.0588745 36,18 C36,27.9411255 27.9411255,36 18,36 Z" id="Combined-Shape" fill="#FF7474"></path>
                </g>
                <g id="icn_trash_off" transform="translate(0.000000, 214.000000)" fill-rule="nonzero" fill="#FFFFFF">
                    <path d="M47.5,10.9812411 L35,10.9812411 L35,8.49062053 C35,7.11496779 33.8808333,6 32.5,6 L27.5,6 C26.1191667,6 25,7.11496779 25,8.49062053 L25,10.9812411 L12.5,10.9812411 C11.1191667,10.9812411 10,12.0962089 10,13.4718617 L10,15.9624823 L50,15.9624823 L50,13.4718617 C50,12.0962089 48.8808334,10.9812411 47.5,10.9812411 L47.5,10.9812411 Z M12.6647068,52.5093794 C12.6647068,53.8850321 13.7838734,55 15.1647068,55 L45.1647068,55 C46.5455401,55 47.6647068,53.8850321 47.6647068,52.5093794 L47.6647068,19.3011052 L12.6647068,19.3011052 L12.6647068,52.5093794 L12.6647068,52.5093794 Z M37.6647068,26.7729669 C37.6647068,25.3973141 38.7838735,24.2823463 40.1647068,24.2823463 C41.5455401,24.2823463 42.6647068,25.3973141 42.6647068,26.7729669 L42.6647068,47.5281383 C42.6647068,48.903791 41.5455401,50.0187589 40.1647068,50.0187589 C38.7838735,50.0187589 37.6647068,48.903791 37.6647068,47.5281383 L37.6647068,26.7729669 L37.6647068,26.7729669 Z M27.6647068,26.7729669 C27.6647068,25.3973141 28.7838734,24.2823463 30.1647068,24.2823463 C31.5455401,24.2823463 32.6647068,25.3973141 32.6647068,26.7729669 L32.6647068,47.5281383 C32.6647068,48.903791 31.5455401,50.0187589 30.1647068,50.0187589 C28.7838734,50.0187589 27.6647068,48.903791 27.6647068,47.5281383 L27.6647068,26.7729669 L27.6647068,26.7729669 Z M17.6647068,26.7729669 C17.6647068,25.3973141 18.7838734,24.2823463 20.1647067,24.2823463 C21.5455401,24.2823463 22.6647068,25.3973141 22.6647068,26.7729669 L22.6647068,47.5281383 C22.6647068,48.903791 21.5455401,50.0187589 20.1647067,50.0187589 C18.7838734,50.0187589 17.6647068,48.903791 17.6647068,47.5281383 L17.6647068,26.7729669 L17.6647068,26.7729669 Z" id="Shape-Copy-10"></path>
                </g>
                <g id="icn_toast_done" transform="translate(0.000000, 138.000000)" fill="#FFFFFF">
                    <path d="M15.0710678,22.9705627 L10.1213203,18.0208153 C9.73079605,17.630291 9.09763107,17.630291 8.70710678,18.0208153 C8.31658249,18.4113396 8.31658249,19.0445046 8.70710678,19.4350288 L14.363961,25.0918831 C14.5592232,25.2871452 14.8151455,25.3847763 15.0710678,25.3847763 C15.3269901,25.3847763 15.5829124,25.2871452 15.7781746,25.0918831 L27.0918831,13.7781746 C27.4824074,13.3876503 27.4824074,12.7544853 27.0918831,12.363961 C26.7013588,11.9734367 26.0681938,11.9734367 25.6776695,12.363961 L15.0710678,22.9705627 Z M18,36 C8.0588745,36 0,27.9411255 0,18 C0,8.0588745 8.0588745,0 18,0 C27.9411255,0 36,8.0588745 36,18 C36,27.9411255 27.9411255,36 18,36 Z" id="Combined-Shape"></path>
                </g>
                <g id="btn_bluetooth_normal" transform="translate(0.000000, 100.000000)" stroke-linecap="round" stroke="#FFFFFF" stroke-linejoin="round">
                    <polygon id="Rectangle-3" points="9 2 13 5.5 9 9"></polygon>
                    <polygon id="Rectangle-3-Copy" points="9 9 13 12.5 9 16"></polygon>
                    <polyline id="Rectangle-3-Copy-2" points="5 6 9 9.5 5 13"></polyline>
                </g>
                <g id="icn_battery_100" transform="translate(9.000000, 9.000000) rotate(-90.000000) translate(-9.000000, -9.000000) ">
                    <rect id="Rectangle-13" stroke="#FFFFFF" stroke-linecap="round" stroke-linejoin="round" x="1" y="5" width="13" height="8.35714286"></rect>
                    <rect id="Rectangle-15" fill="#9FF481" x="2.39285714" y="6.39285714" width="10" height="5.57142857"></rect>
                    <path d="M15.9772949,6.65991211 L15.9772949,11.8122474" id="Path-2" stroke="#FFFFFF" stroke-linecap="round" stroke-linejoin="round"></path>
                </g>
                <g id="icn_battery_80" transform="translate(9.000000, 29.000000) rotate(-90.000000) translate(-9.000000, -29.000000) translate(0.000000, 20.000000)">
                    <rect id="Rectangle-13" stroke="#FFFFFF" stroke-linecap="round" stroke-linejoin="round" x="1" y="5" width="13" height="8.35714286"></rect>
                    <rect id="Rectangle-15" fill="#9FF481" x="2.39285714" y="6.39285714" width="8" height="5.57142857"></rect>
                    <path d="M15.9772949,6.65991211 L15.9772949,11.8122474" id="Path-2" stroke="#FFFFFF" stroke-linecap="round" stroke-linejoin="round"></path>
                </g>
                <g id="icn_battery_60" transform="translate(9.000000, 49.000000) rotate(-90.000000) translate(-9.000000, -49.000000) translate(0.000000, 40.000000)">
                    <rect id="Rectangle-13" stroke="#FFFFFF" stroke-linecap="round" stroke-linejoin="round" x="1" y="5" width="13" height="8.35714286"></rect>
                    <rect id="Rectangle-15" fill="#9FF481" x="2.39285714" y="6.39285714" width="6" height="5.57142857"></rect>
                    <path d="M15.9772949,6.65991211 L15.9772949,11.8122474" id="Path-2" stroke="#FFFFFF" stroke-linecap="round" stroke-linejoin="round"></path>
                </g>
                <g id="icn_battery_40" transform="translate(9.000000, 69.000000) rotate(-90.000000) translate(-9.000000, -69.000000) translate(0.000000, 60.000000)">
                    <rect id="Rectangle-13" stroke="#FFFFFF" stroke-linecap="round" stroke-linejoin="round" x="1" y="5" width="13" height="8.35714286"></rect>
                    <rect id="Rectangle-15" fill="#FDDE3D" x="2.39285714" y="6.39285714" width="4" height="5.57142857"></rect>
                    <path d="M15.9772949,6.65991211 L15.9772949,11.8122474" id="Path-2" stroke="#FFFFFF" stroke-linecap="round" stroke-linejoin="round"></path>
                </g>
                <g id="icn_battery_20" transform="translate(9.000000, 89.000000) rotate(-90.000000) translate(-9.000000, -89.000000) translate(0.000000, 80.000000)">
                    <rect id="Rectangle-13" stroke="#FFFFFF" stroke-linecap="round" stroke-linejoin="round" x="1" y="5" width="13" height="8.35714286"></rect>
                    <rect id="Rectangle-15" fill="#FD3D3D" x="2.39285714" y="6.39285714" width="2" height="5.57142857"></rect>
                    <path d="M15.9772949,6.65991211 L15.9772949,11.8122474" id="Path-2" stroke="#FFFFFF" stroke-linecap="round" stroke-linejoin="round"></path>
                </g>
                <g id="icn_battery_100_disable" transform="translate(29.000000, 9.000000) rotate(-90.000000) translate(-29.000000, -9.000000) translate(20.000000, 0.000000)" opacity="0.6">
                    <rect id="Rectangle-13" stroke="#FFFFFF" stroke-linecap="round" stroke-linejoin="round" x="1" y="5" width="13" height="8.35714286"></rect>
                    <rect id="Rectangle-15" fill="#FFFFFF" x="2.39285714" y="6.39285714" width="10" height="5.57142857"></rect>
                    <path d="M15.9772949,6.65991211 L15.9772949,11.8122474" id="Path-2" stroke="#FFFFFF" stroke-linecap="round" stroke-linejoin="round"></path>
                </g>
                <g id="icn_battery_80_disable" transform="translate(29.000000, 29.000000) rotate(-90.000000) translate(-29.000000, -29.000000) translate(20.000000, 20.000000)" opacity="0.6">
                    <rect id="Rectangle-13" stroke="#FFFFFF" stroke-linecap="round" stroke-linejoin="round" x="1" y="5" width="13" height="8.35714286"></rect>
                    <rect id="Rectangle-15" fill="#FFFFFF" x="2.39285714" y="6.39285714" width="8" height="5.57142857"></rect>
                    <path d="M15.9772949,6.65991211 L15.9772949,11.8122474" id="Path-2" stroke="#FFFFFF" stroke-linecap="round" stroke-linejoin="round"></path>
                </g>
                <g id="icn_battery_60_disable" transform="translate(29.000000, 49.000000) rotate(-90.000000) translate(-29.000000, -49.000000) translate(20.000000, 40.000000)" opacity="0.6">
                    <rect id="Rectangle-13" stroke="#FFFFFF" stroke-linecap="round" stroke-linejoin="round" x="1" y="5" width="13" height="8.35714286"></rect>
                    <rect id="Rectangle-15" fill="#FFFFFF" x="2.39285714" y="6.39285714" width="6" height="5.57142857"></rect>
                    <path d="M15.9772949,6.65991211 L15.9772949,11.8122474" id="Path-2" stroke="#FFFFFF" stroke-linecap="round" stroke-linejoin="round"></path>
                </g>
                <g id="icn_battery_40_disable" transform="translate(29.000000, 69.000000) rotate(-90.000000) translate(-29.000000, -69.000000) translate(20.000000, 60.000000)" opacity="0.6">
                    <rect id="Rectangle-13" stroke="#FFFFFF" stroke-linecap="round" stroke-linejoin="round" x="1" y="5" width="13" height="8.35714286"></rect>
                    <rect id="Rectangle-15" fill="#FFFFFF" x="2.39285714" y="6.39285714" width="4" height="5.57142857"></rect>
                    <path d="M15.9772949,6.65991211 L15.9772949,11.8122474" id="Path-2" stroke="#FFFFFF" stroke-linecap="round" stroke-linejoin="round"></path>
                </g>
                <g id="icn_battery_20_disable" transform="translate(29.000000, 89.000000) rotate(-90.000000) translate(-29.000000, -89.000000) translate(20.000000, 80.000000)" opacity="0.6">
                    <rect id="Rectangle-13" stroke="#FFFFFF" stroke-linecap="round" stroke-linejoin="round" x="1" y="5" width="13" height="8.35714286"></rect>
                    <rect id="Rectangle-15" fill="#FFFFFF" x="2.39285714" y="6.39285714" width="2" height="5.57142857"></rect>
                    <path d="M15.9772949,6.65991211 L15.9772949,11.8122474" id="Path-2" stroke="#FFFFFF" stroke-linecap="round" stroke-linejoin="round"></path>
                </g>
                <g id="icn_list_delete" transform="translate(18.000000, 120.000000)" fill="#E4DDD1">
                    <path d="M7.31180752,6 L10.5747067,2.73710082 C10.965231,2.34657653 10.965231,1.71341155 10.5747067,1.32288726 L10.5747067,1.32288726 L10.5747067,1.32288726 C10.1841824,0.932362964 9.55101743,0.932362964 9.16049314,1.32288726 L9.16049314,1.32288726 L5.89759395,4.58578644 L2.63469477,1.32288726 L2.63469477,1.32288726 C2.24417048,0.932362964 1.6110055,0.932362964 1.22048121,1.32288726 L1.22048121,1.32288726 L1.22048121,1.32288726 C0.829956917,1.71341155 0.829956917,2.34657653 1.22048121,2.73710082 L4.48338039,6 L1.22048121,9.26289918 C0.829956917,9.65342347 0.829956917,10.2865885 1.22048121,10.6771127 C1.6110055,11.067637 2.24417048,11.067637 2.63469477,10.6771127 L5.89759395,7.41421356 L9.16049314,10.6771127 C9.55101743,11.067637 10.1841824,11.067637 10.5747067,10.6771127 C10.965231,10.2865885 10.965231,9.65342347 10.5747067,9.26289918 L7.31180752,6 Z" id="Combined-Shape"></path>
                </g>
                <g id="icn_option_edit" transform="translate(0.000000, 120.000000)" fill="#C3C2C1" opacity="0.600000024">
                    <path d="M10.2125913,1.69139734 C10.7308939,1.17309476 11.5690585,1.17092489 12.1027033,1.70456963 L13.9706552,3.57252155 C14.4962326,4.09809899 14.4926928,4.95376819 13.9838275,5.4626335 L6.43267672,13.0137843 C5.91437414,13.5320868 5.07620951,13.5342567 4.54256477,13.000612 L2.67461284,11.13266 C2.14903541,10.6070826 2.15257523,9.75141341 2.66144055,9.2425481 L10.2125913,1.69139734 Z M0.5175368,12.4369514 C0.662580516,11.7117328 1.19815906,11.5418243 1.7318038,12.0754691 L3.59975572,13.943421 C4.12533316,14.4689984 3.97336337,15.01067 3.23827344,15.157688 L1.15047704,15.5752473 C0.425258459,15.720291 -0.0470404662,15.2598377 0.0999775195,14.5247478 L0.5175368,12.4369514 Z" id="Combined-Shape"></path>
                </g>
            </g>
            <g id="icns_blockly" transform="translate(1.000000, 2.000000)">
                <g id="icn_stop" transform="translate(33.000000, 256.000000)" fill="#FFFFFF">
                    <path d="M20,4 L23,4 C24.1045695,4 25,4.8954305 25,6 L25,24 C25,25.1045695 24.1045695,26 23,26 L20,26 C18.8954305,26 18,25.1045695 18,24 L18,6 L18,6 C18,4.8954305 18.8954305,4 20,4 Z M7,4 L10,4 C11.1045695,4 12,4.8954305 12,6 L12,24 C12,25.1045695 11.1045695,26 10,26 L7,26 C5.8954305,26 5,25.1045695 5,24 L5,6 L5,6 C5,4.8954305 5.8954305,4 7,4 L7,4 Z" id="Combined-Shape"></path>
                </g>
                <g id="icn_blockly_looks_act" transform="translate(33.000000, 224.000000)" fill-rule="nonzero" fill="#FFFFFF">
                    <path d="M5.35557302,15.6603543 C4.91182336,15.8992948 4.36340514,15.6412904 4.26456449,15.1470871 L3.01456449,8.8970871 C2.95240342,8.58628173 3.09233731,8.26995441 3.3641289,8.10687987 L8.3641289,5.1068875 C8.48069029,5.03695085 8.61406733,5.00000763 8.75,5.00000763 L11.25,5.00000763 C11.5626334,5.00000763 11.842474,5.19393725 11.9522469,5.48666505 C12.0375161,5.71404972 12.2546264,6.1000235 12.6174654,6.48705178 C13.2151518,7.12458397 13.9894631,7.50000763 15,7.50000763 C16.0105369,7.50000763 16.7848482,7.12458397 17.3825346,6.48705178 C17.7453736,6.1000235 17.9624839,5.71404972 18.0477531,5.48666505 C18.157526,5.19393725 18.4373666,5.00000763 18.75,5.00000763 L21.25,5.00000763 C21.3859327,5.00000763 21.5193097,5.03695085 21.6358711,5.1068875 L26.6358711,8.10687987 C26.9076627,8.26995441 27.0475966,8.58628173 26.9854355,8.8970871 L25.7354355,15.1470871 C25.6365949,15.6412904 25.0881766,15.8992948 24.644427,15.6603543 L22.4999924,14.5056665 L22.4999924,25.25 C22.4999924,25.6642136 22.1642059,26 21.7499924,26 L8.25000763,26 C7.83579407,26 7.50000763,25.6642136 7.50000763,25.25 L7.50000763,14.5056665 L5.35557302,15.6603543 Z M4.58909073,9.12118904 L5.53669257,13.8591982 L7.89443461,12.5896533 C8.39410756,12.3206005 9.00000763,12.6825021 9.00000763,13.2500076 L9.00000763,24.5 L20.9999924,24.5 L20.9999924,13.2500076 C20.9999924,12.6825021 21.6058924,12.3206005 22.1055654,12.5896533 L24.4633074,13.8591982 L25.4109093,9.12118904 L21.0422625,6.50000763 L19.2239125,6.50000763 C19.0506712,6.8114034 18.8054962,7.16239728 18.4768404,7.51296348 C17.6096831,8.43793129 16.4504006,9.00000763 15,9.00000763 C13.5495994,9.00000763 12.3903169,8.43793129 11.5231596,7.51296348 C11.1945038,7.16239728 10.9493288,6.8114034 10.7760875,6.50000763 L8.95773752,6.50000763 L4.58909073,9.12118904 Z" id="Combined-Shape"></path>
                </g>
                <g id="icn_blockly_control_act" transform="translate(33.000000, 192.000000)">
                    <path d="M18.625,15.9999999 C18.0036796,15.9999999 17.5,15.4963203 17.5,14.875 C17.5,14.2536796 18.0036796,13.75 18.625,13.75 C19.2463203,13.75 19.7499999,14.2536796 19.7499999,14.875 C19.7499999,15.4963203 19.2463203,15.9999999 18.625,15.9999999 Z M22.375,13.4999999 C21.7536796,13.4999999 21.25,12.9963203 21.25,12.375 C21.25,11.7536796 21.7536796,11.25 22.375,11.25 C22.9963203,11.25 23.4999999,11.7536796 23.4999999,12.375 C23.4999999,12.9963203 22.9963203,13.4999999 22.375,13.4999999 Z" id="Combined-Shape" fill="#FFFFFF"></path>
                    <path d="M9.24999237,11.375 L9.24999237,13.6250019 L7.00000003,13.6250019 C6.93096442,13.6250019 6.875,13.6809663 6.875,13.7500019 C6.875,13.8190375 6.93096442,13.875002 7.00000003,13.875002 L9.24999237,13.875002 L9.24999237,16.125 C9.24999237,16.1940356 9.30595679,16.25 9.3749924,16.25 C9.44402801,16.25 9.49999243,16.1940356 9.49999243,16.125 L9.49999243,13.875002 L11.75,13.875002 C11.8190356,13.875002 11.875,13.8190375 11.875,13.7500019 C11.875,13.6809663 11.8190356,13.6250019 11.75,13.6250019 L9.49999243,13.6250019 L9.49999243,11.375 C9.49999243,11.3059644 9.44402801,11.25 9.3749924,11.25 C9.30595679,11.25 9.24999237,11.3059644 9.24999237,11.375 Z" id="Combined-Shape" stroke="#FFFFFF" stroke-width="1.25"></path>
                    <path d="M15.7719433,8.08485009 L16.5081949,8.08485009 L16.4817395,8.02397117 C17.0550064,7.95133918 17.7270994,7.80769026 18.3849464,7.53066309 C19.9129389,6.8872878 20.5000264,5.91029865 22.5378287,6.36813725 C24.5757906,6.82613593 25.6447467,8.65797058 26.6022566,12.4450642 C27.6656244,16.6509361 27.6431117,19.4642422 27.2565631,21.9301673 C26.8700146,24.3962525 24.4389578,23.9777944 23.2443456,22.8858653 C22.0497333,21.7937762 20.2156634,19.8583676 17.7913126,19.7527125 C15.8153006,19.6665876 15.1766413,19.6521801 15.0081949,19.6496188 C14.8383115,19.6521801 14.1958202,19.6665876 12.2198083,19.7527125 C9.79545748,19.8583676 7.9548413,21.7937762 6.76022903,22.8858653 C5.56561676,23.9777944 3.13168607,24.3962525 2.74529718,21.9301673 C2.35874862,19.4642422 2.33048795,16.6509361 3.39385572,12.4450642 C4.35136572,8.65797058 5.41138054,6.82613593 7.44934245,6.36813725 C9.48714469,5.91029865 10.1144678,6.8872878 11.6426199,7.53066309 C13.1350071,8.15915062 15.0081949,8.07860684 15.0081949,8.08485009 C15.1227431,8.09070736 15.3976248,8.10190256 15.7719433,8.08485009 Z M13.8816696,9.54619456 C13.2532858,9.4961962 12.6326039,9.39989773 12.0373026,9.24248859 C11.6958766,9.15220895 11.3696126,9.04327796 11.0605784,8.91313465 C10.746685,8.78098077 10.4578094,8.63629381 10.1295995,8.45383554 C10.0373235,8.4025375 9.54134394,8.11809787 9.41749968,8.0513079 C8.82604921,7.73233506 8.49119047,7.67145472 7.77823975,7.83163531 C6.52917596,8.11234201 5.72036167,9.36279992 4.8480962,12.8127388 C3.94005469,16.4042585 3.80795461,19.0233563 4.22721766,21.6979784 C4.29948347,22.1592071 4.37364813,22.2307415 4.57420952,22.2474498 C4.91025794,22.2754453 5.41762815,22.0808655 5.74813975,21.7787631 C5.85959747,21.6768709 6.29617841,21.2698098 6.35517255,21.2152602 C6.63457469,20.9569076 6.86830068,20.747434 7.1097159,20.5420007 C8.75071428,19.1455859 10.3171287,18.334209 12.1544925,18.2541353 C13.7367706,18.1851713 14.6002421,18.155599 15.0310007,18.1497922 C15.4133401,18.1556059 16.2744575,18.185176 17.8566217,18.254135 C19.6943442,18.3342243 21.2581116,19.1454152 22.8974018,20.5428519 C23.1380979,20.7480369 23.370866,20.9569821 23.6505232,21.2158929 C23.6978427,21.259702 24.1429508,21.6750184 24.256354,21.7786893 C24.5870578,22.0809673 25.0937127,22.2754018 25.4288408,22.2474588 C25.6283884,22.2308205 25.7023065,22.1594654 25.7746596,21.69787 C26.1923653,19.0331829 26.0576322,16.410486 25.1480182,12.8127467 C24.2773937,9.36929832 23.4621385,8.11327314 22.2089314,7.83163531 C21.5025354,7.67292739 21.1834291,7.73078904 20.6159226,8.04064165 C20.496081,8.10607387 20.0046593,8.39180242 19.899615,8.45077517 C19.5736742,8.63376113 19.2832125,8.77998539 18.9671015,8.91308688 C18.1538245,9.25556742 17.2887008,9.45340678 16.4066966,9.5419935 C15.8495906,9.5979481 15.3794893,9.60402517 14.968672,9.58471243 C14.6302952,9.58757466 14.2948843,9.57907264 13.8816696,9.54619456 Z" id="Combined-Shape" fill="#FFFFFF" fill-rule="nonzero"></path>
                </g>
                <g id="icn_blockly_functions_act" transform="translate(33.000000, 160.000000)">
                    <rect id="Rectangle-67" stroke="#FFFFFF" stroke-width="1.5" x="4.75" y="4.75" width="20.5" height="20.5" rx="2.5"></rect>
                    <rect id="Rectangle-68" fill="#FFFFFF" x="5" y="7.5" width="20" height="1.50000006"></rect>
                    <polyline id="Line" stroke="#FFFFFF" stroke-width="1.5" stroke-linecap="round" stroke-linejoin="round" transform="translate(20.625000, 16.875000) scale(-1, 1) translate(-20.625000, -16.875000) " points="21.875 14.375 19.375 16.875 21.875 19.375"></polyline>
                    <path d="M13.125,14.375 L16.875,19.375" id="Line" stroke="#FFFFFF" stroke-width="1.5" stroke-linecap="round" stroke-linejoin="round" transform="translate(15.000000, 16.875000) scale(-1, 1) translate(-15.000000, -16.875000) "></path>
                    <polyline id="Line" stroke="#FFFFFF" stroke-width="1.5" stroke-linecap="round" stroke-linejoin="round" points="10.625 14.375 8.125 16.875 10.625 19.375"></polyline>
                </g>
                <g id="icn_blockly_data_act" transform="translate(33.000000, 128.000000)" stroke-linecap="round" stroke-width="1.5" stroke="#FFFFFF" stroke-linejoin="round">
                    <polyline id="Line" points="4.24475792 18.2077206 7.43168977 16.262912 10.997963 18.2077206 13.2527717 13.7528865 17.6937099 23.72323 22.6629695 8.802594 24.7067317 12.4803946"></polyline>
                </g>
                <g id="icn_blockly_calculator_act" transform="translate(33.000000, 96.000000)">
                    <rect id="Rectangle-65" stroke="#FFFFFF" stroke-width="1.5" x="4.75" y="4.75" width="20.5" height="20.5" rx="2.5"></rect>
                    <rect id="Rectangle-66" fill="#FFFFFF" transform="translate(19.374992, 20.625000) rotate(90.000000) translate(-19.374992, -20.625000) " x="18.6249924" y="17.5" width="1.50000006" height="6.25" rx="0.75000003"></rect>
                    <rect id="Rectangle-66" fill="#FFFFFF" transform="translate(19.374992, 18.125000) rotate(90.000000) translate(-19.374992, -18.125000) " x="18.6249924" y="15" width="1.50000006" height="6.25" rx="0.75000003"></rect>
                    <path d="M10.7499924,21.75 L10.7499924,19.5 L12.9999924,19.5 C13.069028,19.5 13.1249924,19.4440356 13.1249924,19.375 C13.1249924,19.3059644 13.069028,19.25 12.9999924,19.25 L10.7499924,19.25 L10.7499924,17 C10.7499924,16.9309644 10.694028,16.875 10.6249924,16.875 C10.5559568,16.875 10.4999924,16.9309644 10.4999924,17 L10.4999924,19.25 L8.24999243,19.25 C8.18095682,19.25 8.1249924,19.3059644 8.1249924,19.375 C8.1249924,19.4440356 8.18095682,19.5 8.24999243,19.5 L10.4999924,19.5 L10.4999924,21.75 C10.4999924,21.8190356 10.5559568,21.875 10.6249924,21.875 C10.694028,21.875 10.7499924,21.8190356 10.7499924,21.75 Z" id="Combined-Shape" stroke="#FFFFFF" stroke-width="1.25" transform="translate(10.624992, 19.375000) rotate(45.000000) translate(-10.624992, -19.375000) "></path>
                    <rect id="Rectangle-66" fill="#FFFFFF" transform="translate(19.374992, 10.625000) rotate(90.000000) translate(-19.374992, -10.625000) " x="18.6249924" y="7.5" width="1.50000006" height="6.25" rx="0.75000003"></rect>
                    <path d="M10.7499924,13 L10.7499924,10.75 L12.9999924,10.75 C13.069028,10.75 13.1249924,10.6940356 13.1249924,10.625 C13.1249924,10.5559644 13.069028,10.5 12.9999924,10.5 L10.7499924,10.5 L10.7499924,8.25000003 C10.7499924,8.18096442 10.694028,8.125 10.6249924,8.125 C10.5559568,8.125 10.4999924,8.18096442 10.4999924,8.25000003 L10.4999924,10.5 L8.24999243,10.5 C8.18095682,10.5 8.1249924,10.5559644 8.1249924,10.625 C8.1249924,10.6940356 8.18095682,10.75 8.24999243,10.75 L10.4999924,10.75 L10.4999924,13 C10.4999924,13.0690356 10.5559568,13.125 10.6249924,13.125 C10.694028,13.125 10.7499924,13.0690356 10.7499924,13 Z" id="Combined-Shape" stroke="#FFFFFF" stroke-width="1.25"></path>
                </g>
                <g id="icn_blockly_sensing_act" transform="translate(32.000000, 63.000000)" stroke="#FFFFFF" stroke-width="1.5">
                    <circle id="Oval-21" cx="16.5" cy="16.5" r="3.05769231"></circle>
                    <path d="M5.07692308,16.5 C5.07692308,22.8087912 10.1912088,27.9230769 16.5,27.9230769 L16.5,27.9230769 M27.9230769,16.5 C27.9230769,10.1912088 22.8087912,5.07692308 16.5,5.07692308" id="Oval-21" stroke-linecap="round" transform="translate(16.500000, 16.500000) rotate(45.000000) translate(-16.500000, -16.500000) "></path>
                    <path d="M8.88461538,16.5 C8.88461538,20.7058608 12.2941392,24.1153846 16.5,24.1153846 L16.5,24.1153846 M24.1153846,16.5 C24.1153846,12.2941392 20.7058608,8.88461538 16.5,8.88461538" id="Oval-21" stroke-linecap="round" transform="translate(16.500000, 16.500000) rotate(45.000000) translate(-16.500000, -16.500000) "></path>
                </g>
                <g id="icn_blockly_motion_act" transform="translate(33.000000, 32.000000)" stroke="#FFFFFF" stroke-width="1.5">
                    <path d="M14.7999004,16.8494709 L16.3347178,12.8511347 L18.9968467,14.5799415 C19.6088156,14.9773587 20.3954433,14.9508444 20.9767,14.5302496 L21.0725409,14.4713162 C21.1872023,14.4121703 21.2958064,14.3399545 21.3969508,14.2550843 L26.1847286,10.2376617 C26.9251093,9.61640858 27.0216812,8.51258629 26.400428,7.77220563 C25.7791749,7.03182497 24.6753526,6.93525303 23.934972,7.55650617 L19.8657812,10.9709626 L15.6613923,8.24060051 C15.5440941,8.16442616 15.4202199,8.10336682 15.291501,8.05771277 L15.1522093,7.99148157 C14.9073552,7.84241928 14.6293166,7.75562794 14.335421,7.74022552 L8.09398639,7.4131258 C7.36479189,7.37491033 6.69641977,7.79179472 6.39441725,8.46726936 C6.37316512,8.51134728 6.35364452,8.55651749 6.33590488,8.60273084 L4.09610519,14.4376085 C3.74974318,15.3399124 4.20042312,16.3521561 5.10272703,16.6985182 C6.00503093,17.0448802 7.01727467,16.5942002 7.36363669,15.6918963 L9.17445477,10.974554 L11.9120574,11.1180256 L10.184158,15.6193573 C9.95851729,16.2071715 9.97623191,16.8449319 10.2207875,17.4114965 L10.3419242,17.6921352 L9.44602888,20.0260223 L4.07278265,20.685774 C3.11348847,20.8035605 2.43131172,21.6767069 2.54909823,22.6360011 C2.66688475,23.5952953 3.54003117,24.277472 4.49932535,24.1596855 L10.7027388,23.3980021 C10.8872437,23.3753478 11.0634673,23.3247678 11.2991844,23.2196158 C11.7859364,23.0517597 12.1756546,22.6816025 12.3636367,22.1918925 L13.2064045,19.9964072 L14.865404,21.1154165 L15.4730002,26.8963087 C15.5740268,27.8575125 16.4351346,28.5548238 17.3963383,28.4537972 C18.3575421,28.3527707 19.0548534,27.4916629 18.9538269,26.5304591 L18.300524,20.3146973 C18.2932052,20.2450636 18.2819049,20.1765264 18.2667239,20.1092609 L18.2500018,19.9942969 C18.2140085,19.4572061 17.9367376,18.9652944 17.4822727,18.6587539 L14.7999004,16.8494709 Z" id="Combined-Shape"></path>
                    <circle id="Oval-16" cx="17.5" cy="5" r="3"></circle>
                </g>
                <g id="icn_blockly_events_act" transform="translate(33.000000, 0.000000)" stroke="#FFFFFF" stroke-width="1.5">
                    <rect id="Rectangle-58" x="3.75" y="7.75" width="22.5" height="14.5" rx="7.25"></rect>
                    <circle id="Oval-14" cx="11" cy="15" r="4.25"></circle>
                </g>
                <g id="icn_play" transform="translate(1.000000, 256.000000)" fill="#FFA45B">
                    <path d="M11.0064337,3.63856712 L25.6236587,12.779995 L25.6236587,12.779995 C26.8496354,13.5467053 27.2219443,15.1620974 26.455234,16.3880741 C26.2446881,16.7247389 25.9603235,17.0091035 25.6236587,17.2196494 L11.0064337,26.3610773 L11.0064337,26.3610773 C9.780457,27.1277876 8.16506498,26.7554787 7.39835463,25.529502 C7.13803743,25.1132524 7,24.6321968 7,24.1412501 L7,5.85839431 L7,5.85839431 C7,4.41241242 8.17219993,3.24021249 9.61818182,3.24021249 C10.1091286,3.24021249 10.5901842,3.37824992 11.0064337,3.63856712 Z" id="Rectangle"></path>
                </g>
                <g id="icn_blockly_looks_nor" transform="translate(1.000000, 224.000000)" fill-rule="nonzero" fill="#776955">
                    <path d="M5.35557302,15.6603543 C4.91182336,15.8992948 4.36340514,15.6412904 4.26456449,15.1470871 L3.01456449,8.8970871 C2.95240342,8.58628173 3.09233731,8.26995441 3.3641289,8.10687987 L8.3641289,5.1068875 C8.48069029,5.03695085 8.61406733,5.00000763 8.75,5.00000763 L11.25,5.00000763 C11.5626334,5.00000763 11.842474,5.19393725 11.9522469,5.48666505 C12.0375161,5.71404972 12.2546264,6.1000235 12.6174654,6.48705178 C13.2151518,7.12458397 13.9894631,7.50000763 15,7.50000763 C16.0105369,7.50000763 16.7848482,7.12458397 17.3825346,6.48705178 C17.7453736,6.1000235 17.9624839,5.71404972 18.0477531,5.48666505 C18.157526,5.19393725 18.4373666,5.00000763 18.75,5.00000763 L21.25,5.00000763 C21.3859327,5.00000763 21.5193097,5.03695085 21.6358711,5.1068875 L26.6358711,8.10687987 C26.9076627,8.26995441 27.0475966,8.58628173 26.9854355,8.8970871 L25.7354355,15.1470871 C25.6365949,15.6412904 25.0881766,15.8992948 24.644427,15.6603543 L22.4999924,14.5056665 L22.4999924,25.25 C22.4999924,25.6642136 22.1642059,26 21.7499924,26 L8.25000763,26 C7.83579407,26 7.50000763,25.6642136 7.50000763,25.25 L7.50000763,14.5056665 L5.35557302,15.6603543 Z M4.58909073,9.12118904 L5.53669257,13.8591982 L7.89443461,12.5896533 C8.39410756,12.3206005 9.00000763,12.6825021 9.00000763,13.2500076 L9.00000763,24.5 L20.9999924,24.5 L20.9999924,13.2500076 C20.9999924,12.6825021 21.6058924,12.3206005 22.1055654,12.5896533 L24.4633074,13.8591982 L25.4109093,9.12118904 L21.0422625,6.50000763 L19.2239125,6.50000763 C19.0506712,6.8114034 18.8054962,7.16239728 18.4768404,7.51296348 C17.6096831,8.43793129 16.4504006,9.00000763 15,9.00000763 C13.5495994,9.00000763 12.3903169,8.43793129 11.5231596,7.51296348 C11.1945038,7.16239728 10.9493288,6.8114034 10.7760875,6.50000763 L8.95773752,6.50000763 L4.58909073,9.12118904 Z" id="Combined-Shape"></path>
                </g>
                <g id="icn_blockly_control_nor" transform="translate(1.000000, 192.000000)">
                    <path d="M18.625,15.9999999 C18.0036796,15.9999999 17.5,15.4963203 17.5,14.875 C17.5,14.2536796 18.0036796,13.75 18.625,13.75 C19.2463203,13.75 19.7499999,14.2536796 19.7499999,14.875 C19.7499999,15.4963203 19.2463203,15.9999999 18.625,15.9999999 Z M22.375,13.4999999 C21.7536796,13.4999999 21.25,12.9963203 21.25,12.375 C21.25,11.7536796 21.7536796,11.25 22.375,11.25 C22.9963203,11.25 23.4999999,11.7536796 23.4999999,12.375 C23.4999999,12.9963203 22.9963203,13.4999999 22.375,13.4999999 Z" id="Combined-Shape" fill="#776955"></path>
                    <path d="M9.24999237,11.375 L9.24999237,13.6250019 L7.00000003,13.6250019 C6.93096442,13.6250019 6.875,13.6809663 6.875,13.7500019 C6.875,13.8190375 6.93096442,13.875002 7.00000003,13.875002 L9.24999237,13.875002 L9.24999237,16.125 C9.24999237,16.1940356 9.30595679,16.25 9.3749924,16.25 C9.44402801,16.25 9.49999243,16.1940356 9.49999243,16.125 L9.49999243,13.875002 L11.75,13.875002 C11.8190356,13.875002 11.875,13.8190375 11.875,13.7500019 C11.875,13.6809663 11.8190356,13.6250019 11.75,13.6250019 L9.49999243,13.6250019 L9.49999243,11.375 C9.49999243,11.3059644 9.44402801,11.25 9.3749924,11.25 C9.30595679,11.25 9.24999237,11.3059644 9.24999237,11.375 Z" id="Combined-Shape" stroke="#776955" stroke-width="1.25"></path>
                    <path d="M15.7719433,8.08485009 L16.5081949,8.08485009 L16.4817395,8.02397117 C17.0550064,7.95133918 17.7270994,7.80769026 18.3849464,7.53066309 C19.9129389,6.8872878 20.5000264,5.91029865 22.5378287,6.36813725 C24.5757906,6.82613593 25.6447467,8.65797058 26.6022566,12.4450642 C27.6656244,16.6509361 27.6431117,19.4642422 27.2565631,21.9301673 C26.8700146,24.3962525 24.4389578,23.9777944 23.2443456,22.8858653 C22.0497333,21.7937762 20.2156634,19.8583676 17.7913126,19.7527125 C15.8153006,19.6665876 15.1766413,19.6521801 15.0081949,19.6496188 C14.8383115,19.6521801 14.1958202,19.6665876 12.2198083,19.7527125 C9.79545748,19.8583676 7.9548413,21.7937762 6.76022903,22.8858653 C5.56561676,23.9777944 3.13168607,24.3962525 2.74529718,21.9301673 C2.35874862,19.4642422 2.33048795,16.6509361 3.39385572,12.4450642 C4.35136572,8.65797058 5.41138054,6.82613593 7.44934245,6.36813725 C9.48714469,5.91029865 10.1144678,6.8872878 11.6426199,7.53066309 C13.1350071,8.15915062 15.0081949,8.07860684 15.0081949,8.08485009 C15.1227431,8.09070736 15.3976248,8.10190256 15.7719433,8.08485009 Z M13.8816696,9.54619456 C13.2532858,9.4961962 12.6326039,9.39989773 12.0373026,9.24248859 C11.6958766,9.15220895 11.3696126,9.04327796 11.0605784,8.91313465 C10.746685,8.78098077 10.4578094,8.63629381 10.1295995,8.45383554 C10.0373235,8.4025375 9.54134394,8.11809787 9.41749968,8.0513079 C8.82604921,7.73233506 8.49119047,7.67145472 7.77823975,7.83163531 C6.52917596,8.11234201 5.72036167,9.36279992 4.8480962,12.8127388 C3.94005469,16.4042585 3.80795461,19.0233563 4.22721766,21.6979784 C4.29948347,22.1592071 4.37364813,22.2307415 4.57420952,22.2474498 C4.91025794,22.2754453 5.41762815,22.0808655 5.74813975,21.7787631 C5.85959747,21.6768709 6.29617841,21.2698098 6.35517255,21.2152602 C6.63457469,20.9569076 6.86830068,20.747434 7.1097159,20.5420007 C8.75071428,19.1455859 10.3171287,18.334209 12.1544925,18.2541353 C13.7367706,18.1851713 14.6002421,18.155599 15.0310007,18.1497922 C15.4133401,18.1556059 16.2744575,18.185176 17.8566217,18.254135 C19.6943442,18.3342243 21.2581116,19.1454152 22.8974018,20.5428519 C23.1380979,20.7480369 23.370866,20.9569821 23.6505232,21.2158929 C23.6978427,21.259702 24.1429508,21.6750184 24.256354,21.7786893 C24.5870578,22.0809673 25.0937127,22.2754018 25.4288408,22.2474588 C25.6283884,22.2308205 25.7023065,22.1594654 25.7746596,21.69787 C26.1923653,19.0331829 26.0576322,16.410486 25.1480182,12.8127467 C24.2773937,9.36929832 23.4621385,8.11327314 22.2089314,7.83163531 C21.5025354,7.67292739 21.1834291,7.73078904 20.6159226,8.04064165 C20.496081,8.10607387 20.0046593,8.39180242 19.899615,8.45077517 C19.5736742,8.63376113 19.2832125,8.77998539 18.9671015,8.91308688 C18.1538245,9.25556742 17.2887008,9.45340678 16.4066966,9.5419935 C15.8495906,9.5979481 15.3794893,9.60402517 14.968672,9.58471243 C14.6302952,9.58757466 14.2948843,9.57907264 13.8816696,9.54619456 Z" id="Combined-Shape" fill="#776955" fill-rule="nonzero"></path>
                </g>
                <g id="icn_blockly_functions_nor" transform="translate(1.000000, 160.000000)">
                    <rect id="Rectangle-67" stroke="#776955" stroke-width="1.5" x="4.75" y="4.75" width="20.5" height="20.5" rx="2.5"></rect>
                    <rect id="Rectangle-68" fill="#776955" x="5" y="7.5" width="20" height="1.50000006"></rect>
                    <polyline id="Line" stroke="#776955" stroke-width="1.5" stroke-linecap="round" stroke-linejoin="round" transform="translate(20.625000, 16.875000) scale(-1, 1) translate(-20.625000, -16.875000) " points="21.875 14.375 19.375 16.875 21.875 19.375"></polyline>
                    <path d="M13.125,14.375 L16.875,19.375" id="Line" stroke="#776955" stroke-width="1.5" stroke-linecap="round" stroke-linejoin="round" transform="translate(15.000000, 16.875000) scale(-1, 1) translate(-15.000000, -16.875000) "></path>
                    <polyline id="Line" stroke="#776955" stroke-width="1.5" stroke-linecap="round" stroke-linejoin="round" points="10.625 14.375 8.125 16.875 10.625 19.375"></polyline>
                </g>
                <g id="icn_blockly_data_nor" transform="translate(1.000000, 128.000000)" stroke-linecap="round" stroke-width="1.5" stroke="#776955" stroke-linejoin="round">
                    <polyline id="Line" points="4.24475792 18.2077206 7.43168977 16.262912 10.997963 18.2077206 13.2527717 13.7528865 17.6937099 23.72323 22.6629695 8.802594 24.7067317 12.4803946"></polyline>
                </g>
                <g id="icn_blockly_calculator_nor" transform="translate(1.000000, 96.000000)">
                    <rect id="Rectangle-65" stroke="#776955" stroke-width="1.5" x="4.75" y="4.75" width="20.5" height="20.5" rx="2.5"></rect>
                    <rect id="Rectangle-66" fill="#776955" transform="translate(19.374992, 20.625000) rotate(90.000000) translate(-19.374992, -20.625000) " x="18.6249924" y="17.5" width="1.50000006" height="6.25" rx="0.75000003"></rect>
                    <rect id="Rectangle-66" fill="#776955" transform="translate(19.374992, 18.125000) rotate(90.000000) translate(-19.374992, -18.125000) " x="18.6249924" y="15" width="1.50000006" height="6.25" rx="0.75000003"></rect>
                    <path d="M10.7499924,21.75 L10.7499924,19.5 L12.9999924,19.5 C13.069028,19.5 13.1249924,19.4440356 13.1249924,19.375 C13.1249924,19.3059644 13.069028,19.25 12.9999924,19.25 L10.7499924,19.25 L10.7499924,17 C10.7499924,16.9309644 10.694028,16.875 10.6249924,16.875 C10.5559568,16.875 10.4999924,16.9309644 10.4999924,17 L10.4999924,19.25 L8.24999243,19.25 C8.18095682,19.25 8.1249924,19.3059644 8.1249924,19.375 C8.1249924,19.4440356 8.18095682,19.5 8.24999243,19.5 L10.4999924,19.5 L10.4999924,21.75 C10.4999924,21.8190356 10.5559568,21.875 10.6249924,21.875 C10.694028,21.875 10.7499924,21.8190356 10.7499924,21.75 Z" id="Combined-Shape" stroke="#776955" stroke-width="1.25" transform="translate(10.624992, 19.375000) rotate(45.000000) translate(-10.624992, -19.375000) "></path>
                    <rect id="Rectangle-66" fill="#776955" transform="translate(19.374992, 10.625000) rotate(90.000000) translate(-19.374992, -10.625000) " x="18.6249924" y="7.5" width="1.50000006" height="6.25" rx="0.75000003"></rect>
                    <path d="M10.7499924,13 L10.7499924,10.75 L12.9999924,10.75 C13.069028,10.75 13.1249924,10.6940356 13.1249924,10.625 C13.1249924,10.5559644 13.069028,10.5 12.9999924,10.5 L10.7499924,10.5 L10.7499924,8.25000003 C10.7499924,8.18096442 10.694028,8.125 10.6249924,8.125 C10.5559568,8.125 10.4999924,8.18096442 10.4999924,8.25000003 L10.4999924,10.5 L8.24999243,10.5 C8.18095682,10.5 8.1249924,10.5559644 8.1249924,10.625 C8.1249924,10.6940356 8.18095682,10.75 8.24999243,10.75 L10.4999924,10.75 L10.4999924,13 C10.4999924,13.0690356 10.5559568,13.125 10.6249924,13.125 C10.694028,13.125 10.7499924,13.0690356 10.7499924,13 Z" id="Combined-Shape" stroke="#776955" stroke-width="1.25"></path>
                </g>
                <g id="icn_blockly_sensing_nor" transform="translate(0.000000, 63.000000)" stroke="#776955" stroke-width="1.5">
                    <circle id="Oval-21" cx="16.5" cy="16.5" r="3.05769231"></circle>
                    <path d="M5.07692308,16.5 C5.07692308,22.8087912 10.1912088,27.9230769 16.5,27.9230769 L16.5,27.9230769 M27.9230769,16.5 C27.9230769,10.1912088 22.8087912,5.07692308 16.5,5.07692308" id="Oval-21" stroke-linecap="round" transform="translate(16.500000, 16.500000) rotate(45.000000) translate(-16.500000, -16.500000) "></path>
                    <path d="M8.88461538,16.5 C8.88461538,20.7058608 12.2941392,24.1153846 16.5,24.1153846 L16.5,24.1153846 M24.1153846,16.5 C24.1153846,12.2941392 20.7058608,8.88461538 16.5,8.88461538" id="Oval-21" stroke-linecap="round" transform="translate(16.500000, 16.500000) rotate(45.000000) translate(-16.500000, -16.500000) "></path>
                </g>
                <g id="icn_blockly_motion_nor" transform="translate(1.000000, 32.000000)" stroke="#776955" stroke-width="1.5">
                    <path d="M14.7999004,16.8494709 L16.3347178,12.8511347 L18.9968467,14.5799415 C19.6088156,14.9773587 20.3954433,14.9508444 20.9767,14.5302496 L21.0725409,14.4713162 C21.1872023,14.4121703 21.2958064,14.3399545 21.3969508,14.2550843 L26.1847286,10.2376617 C26.9251093,9.61640858 27.0216812,8.51258629 26.400428,7.77220563 C25.7791749,7.03182497 24.6753526,6.93525303 23.934972,7.55650617 L19.8657812,10.9709626 L15.6613923,8.24060051 C15.5440941,8.16442616 15.4202199,8.10336682 15.291501,8.05771277 L15.1522093,7.99148157 C14.9073552,7.84241928 14.6293166,7.75562794 14.335421,7.74022552 L8.09398639,7.4131258 C7.36479189,7.37491033 6.69641977,7.79179472 6.39441725,8.46726936 C6.37316512,8.51134728 6.35364452,8.55651749 6.33590488,8.60273084 L4.09610519,14.4376085 C3.74974318,15.3399124 4.20042312,16.3521561 5.10272703,16.6985182 C6.00503093,17.0448802 7.01727467,16.5942002 7.36363669,15.6918963 L9.17445477,10.974554 L11.9120574,11.1180256 L10.184158,15.6193573 C9.95851729,16.2071715 9.97623191,16.8449319 10.2207875,17.4114965 L10.3419242,17.6921352 L9.44602888,20.0260223 L4.07278265,20.685774 C3.11348847,20.8035605 2.43131172,21.6767069 2.54909823,22.6360011 C2.66688475,23.5952953 3.54003117,24.277472 4.49932535,24.1596855 L10.7027388,23.3980021 C10.8872437,23.3753478 11.0634673,23.3247678 11.2991844,23.2196158 C11.7859364,23.0517597 12.1756546,22.6816025 12.3636367,22.1918925 L13.2064045,19.9964072 L14.865404,21.1154165 L15.4730002,26.8963087 C15.5740268,27.8575125 16.4351346,28.5548238 17.3963383,28.4537972 C18.3575421,28.3527707 19.0548534,27.4916629 18.9538269,26.5304591 L18.300524,20.3146973 C18.2932052,20.2450636 18.2819049,20.1765264 18.2667239,20.1092609 L18.2500018,19.9942969 C18.2140085,19.4572061 17.9367376,18.9652944 17.4822727,18.6587539 L14.7999004,16.8494709 Z" id="Combined-Shape"></path>
                    <circle id="Oval-16" cx="17.5" cy="5" r="3"></circle>
                </g>
                <g id="icn_blockly_events_nor" transform="translate(1.000000, 0.000000)" stroke="#776955" stroke-width="1.5">
                    <rect id="Rectangle-58" x="3.75" y="7.75" width="22.5" height="14.5" rx="7.25"></rect>
                    <circle id="Oval-14" cx="11" cy="15" r="4.25"></circle>
                </g>
            </g>
            <g id="icns_option" transform="translate(66.000000, 2.000000)">
                <g id="icn_option_home" stroke="#FFFFFF" stroke-width="2">
                    <path d="M3,12.6806426 L5.75,12.6806426 L5.75,22 L20.25,22 L20.25,12.6806426 L23,12.6806426 L23,11.8157987 C23,11.5816996 22.8123121,11.1593647 22.6274487,10.9920984 L13.0187224,1.99829886 C13.021266,2.00059754 12.9794283,2.00052395 12.993827,1.98676238 L3.35967844,11.0039377 C3.19181209,11.1556377 3,11.586842 3,11.8157987 L3,12.6806426 Z" id="path-261"></path>
                    <rect id="path-263" x="10" y="15" width="5" height="7" rx="1"></rect>
                </g>
                <g id="icn_option_more_on" transform="translate(0.000000, 28.000000)" fill="#FFFFFF">
                    <path d="M21.3571429,15.3214286 C20.0750533,15.3214286 19.0357143,14.2820896 19.0357143,13 C19.0357143,11.7179104 20.0750533,10.6785714 21.3571429,10.6785714 C22.6392325,10.6785714 23.6785714,11.7179104 23.6785714,13 C23.6785714,14.2820896 22.6392325,15.3214286 21.3571429,15.3214286 Z M13,15.3214286 C11.7179104,15.3214286 10.6785714,14.2820896 10.6785714,13 C10.6785714,11.7179104 11.7179104,10.6785714 13,10.6785714 C14.2820896,10.6785714 15.3214286,11.7179104 15.3214286,13 C15.3214286,14.2820896 14.2820896,15.3214286 13,15.3214286 Z M4.64285714,15.3214286 C3.36076755,15.3214286 2.32142857,14.2820896 2.32142857,13 C2.32142857,11.7179104 3.36076755,10.6785714 4.64285714,10.6785714 C5.92494674,10.6785714 6.96428571,11.7179104 6.96428571,13 C6.96428571,14.2820896 5.92494674,15.3214286 4.64285714,15.3214286 Z" id="Combined-Shape"></path>
                </g>
                <g id="icn_option_more_off" transform="translate(0.000000, 56.000000)" fill="#FFFFFF">
                    <path d="M14.4652974,13 L20.2428227,7.22247475 C20.7309781,6.73431938 20.7309781,5.94286316 20.2428227,5.45470779 L20.2428227,5.45470779 L20.2428227,5.45470779 C19.7546673,4.96655243 18.9632111,4.96655243 18.4750557,5.45470779 L18.4750557,5.45470779 L12.6975305,11.232233 L6.92000523,5.45470779 L6.92000523,5.45470779 C6.43184987,4.96655243 5.64039364,4.96655243 5.15223828,5.45470779 L5.15223828,5.45470779 L5.15223828,5.45470779 C4.66408291,5.94286316 4.66408291,6.73431938 5.15223828,7.22247475 L10.9297635,13 L5.15223828,18.7775253 C4.66408291,19.2656806 4.66408291,20.0571368 5.15223828,20.5452922 C5.64039364,21.0334476 6.43184987,21.0334476 6.92000523,20.5452922 L12.6975305,14.767767 L18.4750557,20.5452922 C18.9632111,21.0334476 19.7546673,21.0334476 20.2428227,20.5452922 C20.7309781,20.0571368 20.7309781,19.2656806 20.2428227,18.7775253 L14.4652974,13 Z" id="Combined-Shape"></path>
                </g>
                <g id="icn_option_save" transform="translate(0.000000, 84.000000)" stroke="#FFFFFF" stroke-width="2">
                    <path d="M3.78571429,7.42718074 L3.78571429,21.3545799 C3.78571429,21.832013 4.16673694,22.2142857 4.63734169,22.2142857 L21.3626583,22.2142857 C21.8320749,22.2142857 22.2142857,21.8323055 22.2142857,21.3626583 L22.2142857,4.63734169 C22.2142857,4.16890132 21.829659,3.78571429 21.3545799,3.78571429 L7.42718074,3.78571429 C7.18109481,3.78571429 6.72424602,3.97568183 6.54693138,4.15299646 L4.15299646,6.54693138 C3.97709412,6.72283373 3.78571429,7.18228109 3.78571429,7.42718074 Z" id="path-255"></path>
                    <rect id="path-257" x="7.5" y="11.2142857" width="11" height="11" rx="0.5"></rect>
                    <rect id="path-259" x="11.2142857" y="6.57142857" width="3.57142857" height="1" rx="0.5"></rect>
                </g>
                <g id="icn_option_delete" transform="translate(0.000000, 112.000000)">
                    <polygon id="Rectangle-9" stroke="#FFFFFF" stroke-width="2" stroke-linecap="round" stroke-linejoin="round" transform="translate(13.000000, 12.000000) rotate(45.000000) translate(-13.000000, -12.000000) " points="7.73913043 2.91304348 18.2608696 2.91304348 18.2608696 17.5694266 14.5228075 21.0869565 7.73913043 21.0869565"></polygon>
                    <rect id="Rectangle-9" stroke="#FFFFFF" stroke-width="2" stroke-linecap="round" stroke-linejoin="round" transform="translate(15.367271, 9.632729) rotate(45.000000) translate(-15.367271, -9.632729) " x="10.106401" y="3.89359904" width="10.5217391" height="11.4782609"></rect>
                    <rect id="Rectangle-10" fill="#FFFFFF" x="2" y="22.0434783" width="22" height="1.91304348" rx="0.956521739"></rect>
                </g>
                <g id="icn_option_variable" transform="translate(0.000000, 192.000000)" stroke="#F3B767">
                    <polyline id="Line-3" stroke-width="1.5" stroke-linecap="round" stroke-linejoin="round" points="7 7 7.66666667 7 12.3333333 14 13 14"></polyline>
                    <polyline id="Line-3" stroke-width="1.5" stroke-linecap="round" stroke-linejoin="round" transform="translate(10.000000, 10.500000) scale(-1, 1) translate(-10.000000, -10.500000) " points="7 7 7.66666667 7 12.3333333 14 13 14"></polyline>
                    <path d="M3.78571429,15.94 L3.78571429,5.06 L4.28571429,5.06 L5.22,5.06 C5.37463973,5.06 5.5,4.93463973 5.5,4.78 C5.5,4.62536027 5.37463973,4.5 5.22,4.5 L3.78,4.5 C3.76657418,4.50020571 3.76657418,4.50020571 3.65795812,4.50074931 C3.65062271,4.50013174 3.65062271,4.50013174 3.64285714,4.5 C3.56395932,4.5 3.5,4.56395932 3.5,4.64285714 L3.5,16.0451427 C3.5,16.0516944 3.50041,16.05806 3.50121063,16.0642576 L3.5019389,16.1864634 C3.500653,16.197446 3.5,16.2086263 3.5,16.22 C3.5,16.3746397 3.62536027,16.5 3.78,16.5 L5.22,16.5 C5.37463973,16.5 5.5,16.3746397 5.5,16.22 C5.5,16.0653603 5.37463973,15.94 5.22,15.94 L3.78571429,15.94 Z" id="Combined-Shape"></path>
                    <path d="M14.7857143,15.94 L14.7857143,5.06 L15.2857143,5.06 L16.22,5.06 C16.3746397,5.06 16.5,4.93463973 16.5,4.78 C16.5,4.62536027 16.3746397,4.5 16.22,4.5 L14.78,4.5 C14.7665742,4.50020571 14.7665742,4.50020571 14.6579581,4.50074931 C14.6506227,4.50013174 14.6506227,4.50013174 14.6428571,4.5 C14.5639593,4.5 14.5,4.56395932 14.5,4.64285714 L14.5,16.0451427 C14.5,16.0516944 14.50041,16.05806 14.5012106,16.0642576 L14.5019389,16.1864634 C14.500653,16.197446 14.5,16.2086263 14.5,16.22 C14.5,16.3746397 14.6253603,16.5 14.78,16.5 L16.22,16.5 C16.3746397,16.5 16.5,16.3746397 16.5,16.22 C16.5,16.0653603 16.3746397,15.94 16.22,15.94 L14.7857143,15.94 Z" id="Combined-Shape" transform="translate(15.500000, 10.500000) scale(-1, 1) translate(-15.500000, -10.500000) "></path>
                </g>
                <g id="icn_option_back" transform="translate(0.000000, 214.000000)" fill="#FFFFFF">
                    <path d="M8.75735931,11 L21.5,11 C22.3284271,11 23,11.6715729 23,12.5 C23,13.3284271 22.3284271,14 21.5,14 L8.75735931,14 L12.5606602,17.8033009 C13.1464466,18.3890873 13.1464466,19.3388348 12.5606602,19.9246212 C11.9748737,20.5104076 11.0251263,20.5104076 10.4393398,19.9246212 L4.0753788,13.5606602 C3.48959236,12.9748737 3.48959236,12.0251263 4.0753788,11.4393398 L10.4393398,5.0753788 C11.0251263,4.48959236 11.9748737,4.48959236 12.5606602,5.0753788 C13.1464466,5.66116524 13.1464466,6.6109127 12.5606602,7.19669914 L8.75735931,11 Z" id="Combined-Shape"></path>
                </g>
                <g id="btn_more_newFile" transform="translate(0.000000, 140.000000)" fill="#564539">
                    <path d="M11.6315789,5.625 C11.6315789,5.2125 11.9631579,4.875 12.3684211,4.875 C12.7736842,4.875 13.1052632,5.2125 13.1052632,5.625 L13.1052632,8.4375 C13.1052632,8.74875 13.3521053,9 13.6578947,9 L16.4210526,9 C16.8263158,9 17.1578947,9.3375 17.1578947,9.75 C17.1578947,10.1625 16.8263158,10.5 16.4210526,10.5 L13.1052632,10.5 C12.2910526,10.5 11.6315789,9.82875 11.6315789,9 L11.6315789,5.625 Z M6.47368421,3 C5.65947368,3 5,3.67125 5,4.5 L5,19.5 C5,20.32875 5.65947368,21 6.47368421,21 L17.5263158,21 C18.3405263,21 19,20.32875 19,19.5 L19,8.22 C19,7.7175 18.8047368,7.27125 18.4915789,6.94875 L15.1463158,3.55125 C14.8147368,3.21 14.3505263,3 13.8421053,3 L6.47368421,3 Z" id="Fill-1"></path>
                </g>
                <g id="btn_more_list" transform="translate(0.000000, 166.000000)" fill="#564539">
                    <path d="M5.5,16 L18.5,16 C19.3284271,16 20,16.6715729 20,17.5 C20,18.3284271 19.3284271,19 18.5,19 L5.5,19 C4.67157288,19 4,18.3284271 4,17.5 C4,16.6715729 4.67157288,16 5.5,16 L5.5,16 Z M5.5,11 L18.5,11 C19.3284271,11 20,11.6715729 20,12.5 C20,13.3284271 19.3284271,14 18.5,14 L5.5,14 C4.67157288,14 4,13.3284271 4,12.5 C4,11.6715729 4.67157288,11 5.5,11 L5.5,11 Z M5.5,6 L18.5,6 C19.3284271,6 20,6.67157288 20,7.5 L20,7.5 C20,8.32842712 19.3284271,9 18.5,9 L5.5,9 C4.67157288,9 4,8.32842712 4,7.5 L4,7.5 L4,7.5 C4,6.67157288 4.67157288,6 5.5,6 L5.5,6 Z" id="Combined-Shape"></path>
                </g>
            </g>
            <rect id="Rectangle-15" fill="#D8D8D8" x="0" y="0" width="2" height="2"></rect>
        </g>
    </g>
</svg>